<?xml version="1.0" encoding="UTF-8" standalone="no"?>
<svg
   xmlns:dc="http://purl.org/dc/elements/1.1/"
   xmlns:cc="http://creativecommons.org/ns#"
   xmlns:rdf="http://www.w3.org/1999/02/22-rdf-syntax-ns#"
   xmlns:svg="http://www.w3.org/2000/svg"
   xmlns="http://www.w3.org/2000/svg"
   xmlns:sodipodi="http://sodipodi.sourceforge.net/DTD/sodipodi-0.dtd"
   xmlns:inkscape="http://www.inkscape.org/namespaces/inkscape"
   data-v-70b83f88=""
   version="1.0"
   width="229.50999"
   height="23.59"
   viewBox="0 0 229.50999 23.59"
   preserveAspectRatio="xMidYMid meet"
   style="color-interpolation-filters:sRGB"
   id="svg130"
   sodipodi:docname="HL_logo.svg"
   inkscape:version="0.92.5 (2060ec1f9f, 2020-04-08)">
  <metadata
     id="metadata134">
    <rdf:RDF>
      <cc:Work
         rdf:about="">
        <dc:format>image/svg+xml</dc:format>
        <dc:type
           rdf:resource="http://purl.org/dc/dcmitype/StillImage" />
        <dc:title></dc:title>
      </cc:Work>
    </rdf:RDF>
  </metadata>
  <sodipodi:namedview
     pagecolor="#ffffff"
     bordercolor="#666666"
     borderopacity="1"
     objecttolerance="10"
     gridtolerance="10"
     guidetolerance="10"
     inkscape:pageopacity="0"
     inkscape:pageshadow="2"
     inkscape:window-width="1600"
     inkscape:window-height="1135"
     id="namedview132"
     showgrid="false"
     fit-margin-top="0"
     fit-margin-left="0"
     fit-margin-right="0"
     fit-margin-bottom="0"
     inkscape:zoom="3.3529412"
     inkscape:cx="166.74654"
     inkscape:cy="-104.49772"
     inkscape:window-x="0"
     inkscape:window-y="0"
     inkscape:window-maximized="1"
     inkscape:current-layer="g126" />
  <rect
     data-v-70b83f88=""
     x="-2.9552131"
     y="3.087718"
     width="100%"
     height="100%"
     class="background"
     id="rect73"
     style="fill:#ffffff;fill-opacity:1" />
  <rect
     data-v-70b83f88=""
     x="-2.9552131"
     y="3.087718"
     width="100%"
     height="100%"
     class="watermarklayer"
     id="rect75"
     style="fill:url(#watermark);fill-opacity:1" />
  <g
     data-v-70b83f88=""
     class="icon-text-wrapper icon-svg-group iconsvg"
     transform="translate(19.667285,98.087718)"
     id="g126"
     style="fill:#0b5394">
    <g
       transform="translate(-19.667285,-98.087718)"
       id="g124">
      <g
         data-gra="path-name"
         fill-rule=""
         class="tp-name iconsvg-namesvg"
         id="g122">
        <g
           id="g120">
          <g
             id="g118">
            <path
               d="m 15.81,-11.88 v 9.64 c 0,0.85 -0.56,1.55 -1.42,1.71 L 13.23,-0.3 V 0 h 9.11 v -0.3 l -1.15,-0.23 c -0.86,-0.16 -1.42,-0.86 -1.42,-1.71 v -18.62 c 0,-0.85 0.56,-1.55 1.42,-1.71 l 1.15,-0.23 v -0.3 h -9.11 v 0.3 l 1.16,0.23 c 0.86,0.16 1.42,0.86 1.42,1.71 v 8.32 H 7.33 v -8.32 c 0,-0.85 0.56,-1.55 1.41,-1.71 L 9.9,-22.8 v -0.3 H 0.79 v 0.3 l 1.16,0.23 c 0.85,0.16 1.42,0.86 1.42,1.71 v 18.62 c 0,0.85 -0.57,1.55 -1.42,1.71 L 0.79,-0.3 V 0 H 9.9 V -0.3 L 8.74,-0.53 C 7.89,-0.69 7.33,-1.39 7.33,-2.24 v -9.64 z m 28.54,-10.46 1.55,-0.46 v -0.3 h -6.76 v 0.3 l 1.58,0.46 c 0.73,0.23 1.22,0.89 1.22,1.65 V -6.6 c 0,2.15 -0.63,3.83 -1.71,4.88 -1.13,1.06 -2.58,1.56 -4.56,1.56 -3.69,0 -5.84,-2.38 -5.84,-6.44 v -14.26 c 0,-0.85 0.56,-1.55 1.42,-1.71 l 1.15,-0.23 v -0.3 h -9.14 v 0.3 l 1.16,0.23 c 0.86,0.16 1.42,0.86 1.42,1.71 V -6.6 c 0,4.46 3.46,7.09 9.4,7.09 5.28,0 7.89,-2.34 7.89,-7.09 v -14.12 c 0,-0.76 0.49,-1.39 1.22,-1.62 z M 64.18,-6.2 52.27,-23.1 h -6.11 v 0.3 l 1.49,0.36 c 0.79,0.2 1.32,0.86 1.32,1.68 v 18.35 c 0,0.76 -0.5,1.42 -1.22,1.65 L 46.16,-0.3 V 0 h 6.77 v -0.3 l -1.55,-0.46 c -0.73,-0.23 -1.22,-0.86 -1.22,-1.62 v -17.49 l 14.29,20.2 h 0.92 v -21.02 c 0,-0.76 0.5,-1.42 1.22,-1.65 l 1.59,-0.46 v -0.3 h -6.77 v 0.3 l 1.55,0.46 c 0.73,0.23 1.22,0.86 1.22,1.62 z m 26.17,-16.6 v -0.3 H 66.26 v 0.3 c 1.29,0 0.79,4.42 -0.1,4.42 3.2,2.18 3.2,-4.06 4.79,-4.06 h 5.38 v 20.2 c 0,0.85 -0.57,1.55 -1.42,1.71 L 73.75,-0.3 V 0 h 9.11 V -0.3 L 81.7,-0.53 c -0.85,-0.16 -1.41,-0.86 -1.41,-1.71 v -20.2 h 5.37 c 1.59,0 1.59,6.24 4.79,4.06 -0.89,0 -1.39,-4.42 -0.1,-4.42 z m 17.19,18.08 c -3.2,-2.18 -3.2,4.06 -4.78,4.06 h -5.58 c -1.06,0 -1.85,-0.79 -1.85,-1.85 v -18.35 c 0,-0.85 0.53,-1.55 1.29,-1.68 l 1.29,-0.26 v -0.3 H 88.8 v 0.3 l 1.15,0.23 c 0.86,0.16 1.42,0.86 1.42,1.71 v 18.62 c 0,0.85 -0.56,1.55 -1.42,1.71 L 88.8,-0.3 V 0 h 18.64 v -0.3 c -1.28,0 -0.79,-4.42 0.1,-4.42 z m 19.5,0 c -3.2,-2.18 -3.2,4.06 -4.78,4.06 h -5.58 c -1.05,0 -1.84,-0.79 -1.84,-1.85 v -9.37 h 0.65 c 2.02,0 4,0.99 5.15,2.64 l 0.23,0.33 h 0.4 v -6.6 h -0.4 l -0.23,0.33 c -1.15,1.65 -3.13,2.64 -5.15,2.64 h -0.65 v -8.22 c 0,-0.85 0.49,-1.68 1.28,-1.68 h 6.14 c 1.58,0 1.58,6.24 4.78,4.06 -0.89,0 -1.38,-4.42 -0.09,-4.42 v -0.3 H 108.3 v 0.3 l 1.16,0.23 c 0.85,0.16 1.42,0.86 1.42,1.71 v 18.62 c 0,0.85 -0.57,1.55 -1.42,1.71 L 108.3,-0.3 V 0 h 18.65 v -0.3 c -1.29,0 -0.8,-4.42 0.09,-4.42 z m 19.84,-17.69 1.38,-0.39 v -0.3 h -6.76 v 0.3 l 0.56,0.16 c 1.25,0.37 1.78,1.59 1.19,2.77 l -4.72,9.34 -4.72,-9.37 c -0.66,-1.32 0,-2.64 1.39,-2.9 v -0.3 h -9.38 v 0.3 c 1.69,0.33 3.07,1.38 3.86,3 l 5.42,10.73 -0.04,6.83 c 0,0.89 -0.59,1.55 -1.42,1.71 l -1.15,0.23 V 0 h 9.14 v -0.3 l -1.16,-0.23 c -0.85,-0.16 -1.41,-0.86 -1.41,-1.71 v -7 l 5.34,-10.63 c 0.69,-1.38 1.59,-2.27 2.48,-2.54 z m 1.28,20.93 c 0,1.02 0.63,1.81 1.85,1.81 1.22,0 1.85,-0.79 1.85,-1.81 0,-1.03 -0.63,-1.82 -1.85,-1.82 -1.22,0 -1.85,0.79 -1.85,1.82 z m 25.15,-3.24 c -3.2,-2.18 -3.2,4.06 -4.79,4.06 h -5.57 c -1.06,0 -1.85,-0.79 -1.85,-1.85 v -18.35 c 0,-0.85 0.53,-1.55 1.29,-1.68 l 1.28,-0.26 v -0.3 h -9.1 v 0.3 l 1.15,0.23 c 0.86,0.16 1.42,0.86 1.42,1.71 v 18.62 c 0,0.85 -0.56,1.55 -1.42,1.71 l -1.15,0.23 V 0 h 18.64 v -0.3 c -1.29,0 -0.79,-4.42 0.1,-4.42 z m 8.58,-17.82 1.29,-0.26 v -0.3 h -9.11 v 0.3 l 1.15,0.23 c 0.86,0.16 1.42,0.86 1.42,1.71 v 18.62 c 0,0.85 -0.56,1.55 -1.42,1.71 l -1.15,0.23 V 0 h 9.11 v -0.3 l -1.16,-0.23 c -0.86,-0.16 -1.42,-0.86 -1.42,-1.71 v -18.62 c 0,-0.85 0.53,-1.55 1.29,-1.68 z m 20.66,16.34 -11.92,-16.9 h -6.1 v 0.3 l 1.48,0.36 c 0.79,0.2 1.32,0.86 1.32,1.68 v 18.35 c 0,0.76 -0.49,1.42 -1.22,1.65 l -1.58,0.46 V 0 h 6.76 v -0.3 l -1.55,-0.46 c -0.72,-0.23 -1.22,-0.86 -1.22,-1.62 v -17.49 l 14.29,20.2 h 0.92 v -21.02 c 0,-0.76 0.5,-1.42 1.22,-1.65 l 1.59,-0.46 v -0.3 h -6.77 v 0.3 l 1.55,0.46 c 0.73,0.23 1.23,0.86 1.23,1.62 z m 14.12,-5.42 5.08,8.22 c 0.83,1.35 0.36,2.84 -0.99,3.1 V 0 h 9.54 v -0.3 l -0.2,-0.03 c -1.55,-0.3 -2.84,-1.19 -3.66,-2.54 l -7.36,-11.91 4.39,-5.81 c 0.69,-0.93 1.61,-1.55 2.74,-1.88 l 1.08,-0.33 v -0.3 h -6.76 v 0.3 c 1.48,0.43 1.98,1.98 1.02,3.26 l -7.13,9.41 v -10.73 c 0,-0.85 0.57,-1.55 1.42,-1.71 L 217,-22.8 v -0.3 h -9.11 v 0.3 l 1.16,0.23 c 0.85,0.16 1.41,0.86 1.41,1.71 v 18.62 c 0,0.85 -0.56,1.55 -1.41,1.71 l -1.16,0.23 V 0 H 217 v -0.3 l -1.16,-0.23 c -0.85,-0.16 -1.42,-0.86 -1.42,-1.71 v -6.37 z"
               transform="translate(-0.78999996,23.1)"
               id="path116"
               inkscape:connector-curvature="0" />
          </g>
          <!---->
          <!---->
          <!---->
          <!---->
          <!---->
          <!---->
          <!---->
        </g>
      </g>
      <!---->
    </g>
  </g>
  <defs
     v-gra="od"
     id="defs128" />
</svg>
