<svg xmlns="http://www.w3.org/2000/svg" viewBox="0 0 64 64"><path fill="none" d="M0 0h64v64H0z"></path><path d="M54.627 9.373c-2.514-2.514-7.276-2.112-12.259.802.172.845.319 1.716.422 2.626.14 1.253.21 2.496.21 3.699 0 3.591-.576 7.055-1.665 10.016-1.008 2.742-2.424 4.953-4.095 6.396a8.896 8.896 0 0 1-2.212 1.421c.059.005.112.021.172.025.195.014.396.021.599.021 1.747 0 3.751-.503 5.84-1.47 2.655-1.225 5.313-3.127 7.693-5.505a35.939 35.939 0 0 0 2.306-2.583l.006-.007c4.804-6.044 6.031-12.394 2.983-15.441z" fill="#000000"></path><path d="M54.767 23.901a30.496 30.496 0 0 1-1.558 2.156 38.292 38.292 0 0 1-2.453 2.75c-2.555 2.553-5.414 4.596-8.279 5.917-2.337 1.082-4.646 1.654-6.678 1.654-.251 0-.497-.008-.738-.025l-.108-.007-.198-.032-1.964-.18c1.236 1.336 3.086 2.484 5.385 3.326C40.918 40.467 44.143 41 47.5 41c1.133 0 2.301-.066 3.474-.196C58.644 39.931 64 36.31 64 32c0-3.556-3.651-6.638-9.233-8.099zM9.244 40.095c.482-.729.996-1.452 1.566-2.162a31.594 31.594 0 0 1 2.447-2.753 35.609 35.609 0 0 1 2.759-2.462c1.792-1.428 3.645-2.585 5.511-3.443 2.314-1.072 4.613-1.64 6.643-1.64h2.811c-1.233-1.24-2.999-2.303-5.157-3.093-1.795-.66-3.764-1.112-5.854-1.345-2.421-.269-4.845-.25-6.931 0-2.099.234-4.072.687-5.863 1.345-2.422.887-4.353 2.109-5.581 3.533C.552 29.273 0 30.631 0 32s.552 2.727 1.593 3.923c1.23 1.426 3.161 2.649 5.583 3.535.663.244 1.358.45 2.068.637z" fill="#000000"></path><path d="M21.208 51.183A31.232 31.232 0 0 1 21 47.5c0-1.208.07-2.451.208-3.692.247-2.215.725-4.3 1.42-6.198l.028-.085c.844-2.338 2.017-4.288 3.399-5.726l.975-.99 1.192-1.173c-1.748-.011-3.76.484-5.861 1.457-1.718.79-3.433 1.862-5.097 3.188a33.566 33.566 0 0 0-2.593 2.313 29.623 29.623 0 0 0-2.302 2.591c-1.33 1.657-2.406 3.373-3.197 5.096-1.09 2.353-1.591 4.582-1.451 6.438.107 1.585.679 2.938 1.65 3.909.972.973 2.324 1.543 3.902 1.65.206.016.416.023.631.023 1.727 0 3.721-.503 5.812-1.472.642-.295 1.28-.641 1.916-1.013a29.937 29.937 0 0 1-.424-2.633z" fill="#000000"></path><path d="M37.942 53.208a37.91 37.91 0 0 1-2.75-2.453c-2.551-2.551-4.594-5.41-5.917-8.279-1.109-2.395-1.678-4.763-1.646-6.846l.041-2.647c-1.264 1.244-2.339 3.02-3.122 5.187l-.043.127c-.64 1.749-1.081 3.676-1.31 5.732A31.812 31.812 0 0 0 23 47.5c0 1.215.066 2.382.196 3.461.234 2.099.687 4.072 1.345 5.863.887 2.422 2.109 4.353 3.533 5.581C29.273 63.448 30.631 64 32 64c1.368 0 2.727-.552 3.923-1.593 1.427-1.23 2.649-3.161 3.535-5.582.244-.664.45-1.359.637-2.068a30.178 30.178 0 0 1-2.153-1.549z" fill="#000000"></path><path d="M51.2 42.791c-1.25.139-2.493.209-3.7.209-3.59 0-7.053-.576-10.016-1.664-2.577-.943-4.709-2.273-6.163-3.845l-1.003-1.085-.289-.313-.399-.432c-.028 1.78.469 3.833 1.462 5.978 1.225 2.656 3.127 5.315 5.505 7.693a35.43 35.43 0 0 0 2.591 2.311c3.822 3.04 7.767 4.647 10.921 4.647 1.832 0 3.398-.542 4.519-1.663 2.514-2.514 2.113-7.276-.801-12.258-.846.171-1.717.318-2.627.422z" fill="#000000"></path><g><path d="M40.803 13.027C39.93 5.357 36.31 0 32 0c-3.557 0-6.639 3.653-8.1 9.238.726.479 1.448.989 2.159 1.555l.407.336a31.558 31.558 0 0 1 2.355 2.128 35.402 35.402 0 0 1 2.462 2.759c1.428 1.792 2.585 3.645 3.443 5.51 1.082 2.337 1.649 4.65 1.641 6.684l-.012 2.791c1.236-1.224 2.303-2.997 3.104-5.176C40.467 23.083 41 19.858 41 16.5c0-1.13-.066-2.298-.197-3.473z" fill="#000000"></path></g><path d="M10.184 21.634a30.584 30.584 0 0 1 6.258-.632c1.251 0 2.512.07 3.749.207 2.25.25 4.377.741 6.324 1.456 2.204.807 4.071 1.915 5.478 3.203l1.025.979 1.348 1.355c.008-1.742-.488-3.746-1.457-5.84-.79-1.718-1.862-3.432-3.188-5.096a33.566 33.566 0 0 0-2.313-2.593 29.595 29.595 0 0 0-2.217-2.002l-.377-.312c-1.666-1.326-3.38-2.398-5.093-3.185-2.353-1.089-4.583-1.593-6.438-1.451-1.585.107-2.938.679-3.909 1.65-.972.972-1.543 2.324-1.65 3.902-.141 1.864.36 4.092 1.449 6.442.293.642.64 1.28 1.011 1.917z" fill="#000000"></path></svg>
