<svg data-v-70b83f88="" version="1.0" xmlns="http://www.w3.org/2000/svg" xmlns:xlink="http://www.w3.org/1999/xlink" width="100%" height="100%" viewBox="0 0 340.000000 250.000000" preserveAspectRatio="xMidYMid meet" color-interpolation-filters="sRGB" style="margin: auto;"> <rect data-v-70b83f88="" x="0" y="0" width="100%" height="100%" fill="#ffffff" fill-opacity="1" class="background"></rect> <rect data-v-70b83f88="" x="0" y="0" width="100%" height="100%" fill="url(#watermark)" fill-opacity="1" class="watermarklayer"></rect> <g data-v-70b83f88="" fill="#75AADB" class="icon-text-wrapper icon-svg-group iconsvg" transform="translate(55.244995057582855,79.70500183105469)"><g class="iconsvg-imagesvg" transform="translate(84.7550048828125,0)"><g><rect fill="#75AADB" fill-opacity="0" stroke-width="2" x="0" y="0" width="60" height="60" class="image-rect"></rect> <svg filter="url(#colors9635600415)" x="0" y="0" width="60" height="60" filtersec="colorsf9564373396" class="image-svg-svg primary" style="overflow: visible;"><svg xmlns="http://www.w3.org/2000/svg" viewBox="0 0 64 64"><path fill="none" d="M0 0h64v64H0z"></path><path d="M54.627 9.373c-2.514-2.514-7.276-2.112-12.259.802.172.845.319 1.716.422 2.626.14 1.253.21 2.496.21 3.699 0 3.591-.576 7.055-1.665 10.016-1.008 2.742-2.424 4.953-4.095 6.396a8.896 8.896 0 0 1-2.212 1.421c.059.005.112.021.172.025.195.014.396.021.599.021 1.747 0 3.751-.503 5.84-1.47 2.655-1.225 5.313-3.127 7.693-5.505a35.939 35.939 0 0 0 2.306-2.583l.006-.007c4.804-6.044 6.031-12.394 2.983-15.441z" fill="#000000"></path><path d="M54.767 23.901a30.496 30.496 0 0 1-1.558 2.156 38.292 38.292 0 0 1-2.453 2.75c-2.555 2.553-5.414 4.596-8.279 5.917-2.337 1.082-4.646 1.654-6.678 1.654-.251 0-.497-.008-.738-.025l-.108-.007-.198-.032-1.964-.18c1.236 1.336 3.086 2.484 5.385 3.326C40.918 40.467 44.143 41 47.5 41c1.133 0 2.301-.066 3.474-.196C58.644 39.931 64 36.31 64 32c0-3.556-3.651-6.638-9.233-8.099zM9.244 40.095c.482-.729.996-1.452 1.566-2.162a31.594 31.594 0 0 1 2.447-2.753 35.609 35.609 0 0 1 2.759-2.462c1.792-1.428 3.645-2.585 5.511-3.443 2.314-1.072 4.613-1.64 6.643-1.64h2.811c-1.233-1.24-2.999-2.303-5.157-3.093-1.795-.66-3.764-1.112-5.854-1.345-2.421-.269-4.845-.25-6.931 0-2.099.234-4.072.687-5.863 1.345-2.422.887-4.353 2.109-5.581 3.533C.552 29.273 0 30.631 0 32s.552 2.727 1.593 3.923c1.23 1.426 3.161 2.649 5.583 3.535.663.244 1.358.45 2.068.637z" fill="#000000"></path><path d="M21.208 51.183A31.232 31.232 0 0 1 21 47.5c0-1.208.07-2.451.208-3.692.247-2.215.725-4.3 1.42-6.198l.028-.085c.844-2.338 2.017-4.288 3.399-5.726l.975-.99 1.192-1.173c-1.748-.011-3.76.484-5.861 1.457-1.718.79-3.433 1.862-5.097 3.188a33.566 33.566 0 0 0-2.593 2.313 29.623 29.623 0 0 0-2.302 2.591c-1.33 1.657-2.406 3.373-3.197 5.096-1.09 2.353-1.591 4.582-1.451 6.438.107 1.585.679 2.938 1.65 3.909.972.973 2.324 1.543 3.902 1.65.206.016.416.023.631.023 1.727 0 3.721-.503 5.812-1.472.642-.295 1.28-.641 1.916-1.013a29.937 29.937 0 0 1-.424-2.633z" fill="#000000"></path><path d="M37.942 53.208a37.91 37.91 0 0 1-2.75-2.453c-2.551-2.551-4.594-5.41-5.917-8.279-1.109-2.395-1.678-4.763-1.646-6.846l.041-2.647c-1.264 1.244-2.339 3.02-3.122 5.187l-.043.127c-.64 1.749-1.081 3.676-1.31 5.732A31.812 31.812 0 0 0 23 47.5c0 1.215.066 2.382.196 3.461.234 2.099.687 4.072 1.345 5.863.887 2.422 2.109 4.353 3.533 5.581C29.273 63.448 30.631 64 32 64c1.368 0 2.727-.552 3.923-1.593 1.427-1.23 2.649-3.161 3.535-5.582.244-.664.45-1.359.637-2.068a30.178 30.178 0 0 1-2.153-1.549z" fill="#000000"></path><path d="M51.2 42.791c-1.25.139-2.493.209-3.7.209-3.59 0-7.053-.576-10.016-1.664-2.577-.943-4.709-2.273-6.163-3.845l-1.003-1.085-.289-.313-.399-.432c-.028 1.78.469 3.833 1.462 5.978 1.225 2.656 3.127 5.315 5.505 7.693a35.43 35.43 0 0 0 2.591 2.311c3.822 3.04 7.767 4.647 10.921 4.647 1.832 0 3.398-.542 4.519-1.663 2.514-2.514 2.113-7.276-.801-12.258-.846.171-1.717.318-2.627.422z" fill="#000000"></path><g><path d="M40.803 13.027C39.93 5.357 36.31 0 32 0c-3.557 0-6.639 3.653-8.1 9.238.726.479 1.448.989 2.159 1.555l.407.336a31.558 31.558 0 0 1 2.355 2.128 35.402 35.402 0 0 1 2.462 2.759c1.428 1.792 2.585 3.645 3.443 5.51 1.082 2.337 1.649 4.65 1.641 6.684l-.012 2.791c1.236-1.224 2.303-2.997 3.104-5.176C40.467 23.083 41 19.858 41 16.5c0-1.13-.066-2.298-.197-3.473z" fill="#000000"></path></g><path d="M10.184 21.634a30.584 30.584 0 0 1 6.258-.632c1.251 0 2.512.07 3.749.207 2.25.25 4.377.741 6.324 1.456 2.204.807 4.071 1.915 5.478 3.203l1.025.979 1.348 1.355c.008-1.742-.488-3.746-1.457-5.84-.79-1.718-1.862-3.432-3.188-5.096a33.566 33.566 0 0 0-2.313-2.593 29.595 29.595 0 0 0-2.217-2.002l-.377-.312c-1.666-1.326-3.38-2.398-5.093-3.185-2.353-1.089-4.583-1.593-6.438-1.451-1.585.107-2.938.679-3.909 1.65-.972.972-1.543 2.324-1.65 3.902-.141 1.864.36 4.092 1.449 6.442.293.642.64 1.28 1.011 1.917z" fill="#000000"></path></svg></svg> <defs><filter id="colors9635600415"><feColorMatrix type="matrix" values="0 0 0 0 0.45703125  0 0 0 0 0.6640625  0 0 0 0 0.85546875  0 0 0 1 0" class="icon-fecolormatrix"></feColorMatrix></filter> <filter id="colorsf9564373396"><feColorMatrix type="matrix" values="0 0 0 0 0.99609375  0 0 0 0 0.99609375  0 0 0 0 0.99609375  0 0 0 1 0" class="icon-fecolormatrix"></feColorMatrix></filter> <filter id="colorsb2346886686"><feColorMatrix type="matrix" values="0 0 0 0 0  0 0 0 0 0  0 0 0 0 0  0 0 0 1 0" class="icon-fecolormatrix"></feColorMatrix></filter></defs></g></g> <g transform="translate(0,67)"><g data-gra="path-name" fill-rule="" class="tp-name iconsvg-namesvg"><g transform="scale(1)"><g><path d="M15.81-11.88L15.81-2.24C15.81-1.39 15.25-0.69 14.39-0.53L13.23-0.3 13.23 0 22.34 0 22.34-0.3 21.19-0.53C20.33-0.69 19.77-1.39 19.77-2.24L19.77-20.86C19.77-21.71 20.33-22.41 21.19-22.57L22.34-22.8 22.34-23.1 13.23-23.1 13.23-22.8 14.39-22.57C15.25-22.41 15.81-21.71 15.81-20.86L15.81-12.54 7.33-12.54 7.33-20.86C7.33-21.71 7.89-22.41 8.74-22.57L9.9-22.8 9.9-23.1 0.79-23.1 0.79-22.8 1.95-22.57C2.8-22.41 3.37-21.71 3.37-20.86L3.37-2.24C3.37-1.39 2.8-0.69 1.95-0.53L0.79-0.3 0.79 0 9.9 0 9.9-0.3 8.74-0.53C7.89-0.69 7.33-1.39 7.33-2.24L7.33-11.88ZM44.35-22.34L45.9-22.8 45.9-23.1 39.14-23.1 39.14-22.8 40.72-22.34C41.45-22.11 41.94-21.45 41.94-20.69L41.94-6.6C41.94-4.45 41.31-2.77 40.23-1.72 39.1-0.66 37.65-0.16 35.67-0.16 31.98-0.16 29.83-2.54 29.83-6.6L29.83-20.86C29.83-21.71 30.39-22.41 31.25-22.57L32.4-22.8 32.4-23.1 23.26-23.1 23.26-22.8 24.42-22.57C25.28-22.41 25.84-21.71 25.84-20.86L25.84-6.6C25.84-2.14 29.3 0.49 35.24 0.49 40.52 0.49 43.13-1.85 43.13-6.6L43.13-20.72C43.13-21.48 43.62-22.11 44.35-22.34ZM64.18-6.2L52.27-23.1 46.16-23.1 46.16-22.8 47.65-22.44C48.44-22.24 48.97-21.58 48.97-20.76L48.97-2.41C48.97-1.65 48.47-0.99 47.75-0.76L46.16-0.3 46.16 0 52.93 0 52.93-0.3 51.38-0.76C50.65-0.99 50.16-1.62 50.16-2.38L50.16-19.87 64.45 0.33 65.37 0.33 65.37-20.69C65.37-21.45 65.87-22.11 66.59-22.34L68.18-22.8 68.18-23.1 61.41-23.1 61.41-22.8 62.96-22.34C63.69-22.11 64.18-21.48 64.18-20.72ZM90.35-22.8L90.35-23.1 66.26-23.1 66.26-22.8C67.55-22.8 67.05-18.38 66.16-18.38 69.36-16.2 69.36-22.44 70.95-22.44L76.33-22.44 76.33-2.24C76.33-1.39 75.76-0.69 74.91-0.53L73.75-0.3 73.75 0 82.86 0 82.86-0.3 81.7-0.53C80.85-0.69 80.29-1.39 80.29-2.24L80.29-22.44 85.66-22.44C87.25-22.44 87.25-16.2 90.45-18.38 89.56-18.38 89.06-22.8 90.35-22.8ZM107.54-4.72C104.34-6.9 104.34-0.66 102.76-0.66L97.18-0.66C96.12-0.66 95.33-1.45 95.33-2.51L95.33-20.86C95.33-21.71 95.86-22.41 96.62-22.54L97.91-22.8 97.91-23.1 88.8-23.1 88.8-22.8 89.95-22.57C90.81-22.41 91.37-21.71 91.37-20.86L91.37-2.24C91.37-1.39 90.81-0.69 89.95-0.53L88.8-0.3 88.8 0 107.44 0 107.44-0.3C106.16-0.3 106.65-4.72 107.54-4.72ZM127.04-4.72C123.84-6.9 123.84-0.66 122.26-0.66L116.68-0.66C115.63-0.66 114.84-1.45 114.84-2.51L114.84-11.88 115.49-11.88C117.51-11.88 119.49-10.89 120.64-9.24L120.87-8.91 121.27-8.91 121.27-15.51 120.87-15.51 120.64-15.18C119.49-13.53 117.51-12.54 115.49-12.54L114.84-12.54 114.84-20.76C114.84-21.61 115.33-22.44 116.12-22.44L122.26-22.44C123.84-22.44 123.84-16.2 127.04-18.38 126.15-18.38 125.66-22.8 126.95-22.8L126.95-23.1 108.3-23.1 108.3-22.8 109.46-22.57C110.31-22.41 110.88-21.71 110.88-20.86L110.88-2.24C110.88-1.39 110.31-0.69 109.46-0.53L108.3-0.3 108.3 0 126.95 0 126.95-0.3C125.66-0.3 126.15-4.72 127.04-4.72ZM146.88-22.41L148.26-22.8 148.26-23.1 141.5-23.1 141.5-22.8 142.06-22.64C143.31-22.27 143.84-21.05 143.25-19.87L138.53-10.53 133.81-19.9C133.15-21.22 133.81-22.54 135.2-22.8L135.2-23.1 125.82-23.1 125.82-22.8C127.51-22.47 128.89-21.42 129.68-19.8L135.1-9.07 135.06-2.24C135.06-1.35 134.47-0.69 133.64-0.53L132.49-0.3 132.49 0 141.63 0 141.63-0.3 140.47-0.53C139.62-0.69 139.06-1.39 139.06-2.24L139.06-9.24 144.4-19.87C145.09-21.25 145.99-22.14 146.88-22.41ZM148.16-1.48C148.16-0.46 148.79 0.33 150.01 0.33 151.23 0.33 151.86-0.46 151.86-1.48 151.86-2.51 151.23-3.3 150.01-3.3 148.79-3.3 148.16-2.51 148.16-1.48ZM173.31-4.72C170.11-6.9 170.11-0.66 168.52-0.66L162.95-0.66C161.89-0.66 161.1-1.45 161.1-2.51L161.1-20.86C161.1-21.71 161.63-22.41 162.39-22.54L163.67-22.8 163.67-23.1 154.57-23.1 154.57-22.8 155.72-22.57C156.58-22.41 157.14-21.71 157.14-20.86L157.14-2.24C157.14-1.39 156.58-0.69 155.72-0.53L154.57-0.3 154.57 0 173.21 0 173.21-0.3C171.92-0.3 172.42-4.72 173.31-4.72ZM181.89-22.54L183.18-22.8 183.18-23.1 174.07-23.1 174.07-22.8 175.22-22.57C176.08-22.41 176.64-21.71 176.64-20.86L176.64-2.24C176.64-1.39 176.08-0.69 175.22-0.53L174.07-0.3 174.07 0 183.18 0 183.18-0.3 182.02-0.53C181.16-0.69 180.6-1.39 180.6-2.24L180.6-20.86C180.6-21.71 181.13-22.41 181.89-22.54ZM202.55-6.2L190.63-23.1 184.53-23.1 184.53-22.8 186.01-22.44C186.8-22.24 187.33-21.58 187.33-20.76L187.33-2.41C187.33-1.65 186.84-0.99 186.11-0.76L184.53-0.3 184.53 0 191.29 0 191.29-0.3 189.74-0.76C189.02-0.99 188.52-1.62 188.52-2.38L188.52-19.87 202.81 0.33 203.73 0.33 203.73-20.69C203.73-21.45 204.23-22.11 204.95-22.34L206.54-22.8 206.54-23.1 199.77-23.1 199.77-22.8 201.32-22.34C202.05-22.11 202.55-21.48 202.55-20.72ZM216.67-11.62L221.75-3.4C222.58-2.05 222.11-0.56 220.76-0.3L220.76 0 230.3 0 230.3-0.3 230.1-0.33C228.55-0.63 227.26-1.52 226.44-2.87L219.08-14.78 223.47-20.59C224.16-21.52 225.08-22.14 226.21-22.47L227.29-22.8 227.29-23.1 220.53-23.1 220.53-22.8C222.01-22.37 222.51-20.82 221.55-19.54L214.42-10.13 214.42-20.86C214.42-21.71 214.99-22.41 215.84-22.57L217-22.8 217-23.1 207.89-23.1 207.89-22.8 209.05-22.57C209.9-22.41 210.46-21.71 210.46-20.86L210.46-2.24C210.46-1.39 209.9-0.69 209.05-0.53L207.89-0.3 207.89 0 217 0 217-0.3 215.84-0.53C214.99-0.69 214.42-1.39 214.42-2.24L214.42-8.61Z" transform="translate(-0.7899999618530273, 23.100000381469727)"></path></g> <!----> <!----> <!----> <!----> <!----> <!----> <!----></g></g> <!----></g></g><defs v-gra="od"></defs></svg>
